<svg width="96" height="96" viewBox="0 0 96 96" fill="none" xmlns="http://www.w3.org/2000/svg">
  <rect width="96" height="96" rx="48" fill="#4B6BFA"/>
  <rect x="16" y="28.6531" width="25.6422" height="5.22449" fill="white"/>
  <rect x="16" y="62.2857" width="25.6422" height="5.22449" fill="white"/>
  <rect x="16" y="45.4694" width="25.6422" height="5.22449" fill="white"/>
  <path fill-rule="evenodd" clip-rule="evenodd" d="M79.7117 33.4537C76.1513 30.0727 71.3499 28 66.0673 28C55.0875 28 46.1865 36.9543 46.1865 48C46.1865 59.0457 55.0875 68 66.0673 68C71.651 68 76.6971 65.6843 80.3083 61.9554L76.2897 58.6095C73.6457 61.1882 70.0407 62.7755 66.0673 62.7755C57.9557 62.7755 51.3799 56.1603 51.3799 48C51.3799 39.8397 57.9557 33.2245 66.0673 33.2245C70.0917 33.2245 73.7381 34.8528 76.3909 37.4902L79.7117 33.4537Z" fill="white"/>
</svg>
