<svg width="107" height="66" viewBox="0 0 107 66" fill="none" xmlns="http://www.w3.org/2000/svg">
  <rect y="1.07755" width="42.4698" height="8.62041" fill="#4B6BFA" />
  <rect y="56.5714" width="42.4698" height="8.62041" fill="#4B6BFA" />
  <rect y="28.8245" width="42.4698" height="8.62041" fill="#4B6BFA" />
  <path fill-rule="evenodd" clip-rule="evenodd" d="M105.522 8.99867C99.6252 3.41992 91.673 0 82.9237 0C64.7383 0 49.9961 14.7746 49.9961 33C49.9961 51.2254 64.7383 66 82.9237 66C92.1717 66 100.529 62.1791 106.51 56.0265L99.8545 50.5057C95.4753 54.7605 89.5047 57.3796 82.9237 57.3796C69.4888 57.3796 58.5976 46.4645 58.5976 33C58.5976 19.5355 69.4888 8.62041 82.9237 8.62041C89.5891 8.62041 95.6284 11.3071 100.022 15.6588L105.522 8.99867Z" fill="#4B6BFA" />
</svg>